<svg width="512" height="512" viewBox="0 0 512 512" fill="none" xmlns="http://www.w3.org/2000/svg" role="img" aria-label="FX Journal Pro">
  <rect x="64" y="64" width="384" height="384" rx="56" stroke="#0F1E36" stroke-width="28" fill="white"/>
  <path d="M 122 398 C 112 360, 132 336, 156 314 L 364 140 C 389 119, 400 100, 400 84" stroke="#0F1E36" stroke-width="24" stroke-linecap="round" stroke-linejoin="round"/>
  <line x1="124" y1="92" x2="124" y2="420" stroke="#0F1E36" stroke-width="24" stroke-linecap="round"/>
  <line x1="168" y1="276" x2="168" y2="334" stroke="#0F1E36" stroke-width="18" stroke-linecap="round"/>
  <rect x="152" y="292" width="32" height="38" rx="4" fill="white" stroke="#0F1E36" stroke-width="16"/>
  <line x1="232" y1="224" x2="232" y2="318" stroke="#0F1E36" stroke-width="18" stroke-linecap="round"/>
  <rect x="216" y="246" width="32" height="50" rx="4" fill="white" stroke="#0F1E36" stroke-width="16"/>
  <line x1="304" y1="164" x2="304" y2="278" stroke="#0F1E36" stroke-width="18" stroke-linecap="round"/>
  <rect x="288" y="192" width="32" height="54" rx="4" fill="white" stroke="#0F1E36" stroke-width="16"/>
  <line x1="380" y1="124" x2="380" y2="236" stroke="#0F1E36" stroke-width="18" stroke-linecap="round"/>
  <rect x="364" y="150" width="32" height="58" rx="4" fill="#10B981" stroke="#0F1E36" stroke-width="16"/>
</svg>
